<?xml version="1.0" encoding="utf-8"?>
<!-- Generator: Adobe Illustrator 21.1.0, SVG Export Plug-In . SVG Version: 6.00 Build 0)  -->
<svg version="1.1" id="_2" xmlns="http://www.w3.org/2000/svg" xmlns:xlink="http://www.w3.org/1999/xlink" x="0px" y="0px"
	 viewBox="0 0 512 512" style="enable-background:new 0 0 512 512;" xml:space="preserve">
<style type="text/css">
	.st0{fill:#FFFFFF;stroke:#42C1F4;stroke-width:0.5;stroke-miterlimit:10;}
	.st1{font-family:'ArialMT';}
	.st2{font-size:120px;}
</style>
<title>アートボード 1</title>
<path class="st0" d="M165.5,211l68.8,79.9c-2,11.8,6,23,17.9,24.9c11.8,2,23-6,24.9-17.9c2-11.8-6-23-17.9-24.9
	c-2.3-0.4-4.7-0.4-7.1,0l-79.9-68.8c-1.7-2-4.8-2.2-6.8-0.4s-2.2,4.8-0.4,6.8C165.2,210.7,165.3,210.9,165.5,211L165.5,211z"/>
<path class="st0" d="M77.7,294.8c0.1,98.3,79.9,177.9,178.2,177.8s177.9-79.9,177.8-178.2s-79.9-177.9-178.2-177.8
	c-71.5,0.1-136,42.9-163.8,108.8C82.5,247.4,77.7,271,77.7,294.8z M215.6,424.6c-12.6-3.9-24.6-9.7-35.6-17.1
	c-49.7-33.6-71.6-95.8-53.8-153.1c3.9-12.6,9.7-24.6,17.1-35.5c33.6-49.8,95.8-71.6,153.2-53.8c12.6,3.9,24.6,9.7,35.6,17.1
	c49.7,33.6,71.6,95.8,53.8,153.1c-3.9,12.6-9.7,24.6-17.1,35.5C335.1,420.5,272.9,442.3,215.6,424.6L215.6,424.6z"/>
<rect x="230.5" y="38.9" class="st0" width="51.1" height="66"/>
<polygon class="st0" points="120.7,160.5 147.3,138.2 119.3,104.9 92.8,127.3 "/>
<rect x="249.3" y="179.2" class="st0" width="13.4" height="31.3"/>
<rect x="249.3" y="379" class="st0" width="13.4" height="31.3"/>
<polygon class="st0" points="333,208.3 310.8,230.5 320.3,239.9 342.5,217.8 "/>
<polygon class="st0" points="179,381.3 201.2,359.1 191.7,349.6 169.5,371.8 "/>
<rect x="340.3" y="288.1" class="st0" width="31.3" height="13.4"/>
<polygon class="st0" points="171.7,288.1 140.4,288.1 140.4,301.5 171.7,301.5 "/>
<polygon class="st0" points="320.3,349.6 310.8,359.1 333,381.3 342.5,371.8 "/>
<text transform="matrix(1 0 0 1 375.79 168.07)" class="st0 st1 st2">‘s</text>
</svg>
